# xmcd
#
# Track frame offsets:
#	187
#	20775
#	33872
#	45372
#	61120
#	83187
#	94155
#	106690
#	123572
#	137237
#
# Disc length: 1985 seconds
#
# Revision: 5
# Processed by: cddbd v1.5.2PL0 Copyright (c) Steve Scherf et al.
# Submitted via: EZCDAudioConverter 6.0.2.1
#
DISCID=7a07bf0a
DTITLE=Aaron Tippin - Call Of The Wild
DYEAR=1993
DGENRE=Country
TTITLE0=The Call Of The Wild
TTITLE1=Honky-Tonk Superman
TTITLE2=Nothin' In The World {Gonna Keep Me From You}
TTITLE3=Workin' Man's Ph.D.
TTITLE4=I Promised You The World
TTITLE5=When Country Took The Throne
TTITLE6=Let's Talk About You
TTITLE7=Whole Lotta Love On The Line
TTITLE8=My Kind Of Town
TTITLE9=Trim Yourself To Fit The World
EXTD=
EXTT0=
EXTT1=
EXTT2=
EXTT3=
EXTT4=
EXTT5=
EXTT6=
EXTT7=
EXTT8=
EXTT9=
PLAYORDER=
